<svg width="194" height="298" viewBox="0 0 194 298" fill="none" xmlns="http://www.w3.org/2000/svg">
<g filter="url(#filter0_d_178_695)">
<rect x="24" y="53" width="146" height="146" rx="35" fill="white"/>
<path d="M91.1094 166.4C100.389 166.4 107.589 163.36 112.709 158.08V164H139.909V123.84C139.909 99.36 121.509 81.44 95.9094 81.44C70.9494 81.44 51.9094 100.64 51.9094 123.84C51.9094 147.2 67.7494 166.4 91.1094 166.4ZM95.9094 139.36C86.7894 139.36 80.7094 132.32 80.7094 124C80.7094 115.52 86.7894 108.48 95.9094 108.48C105.029 108.48 111.109 115.52 111.109 124C111.109 132.32 105.029 139.36 95.9094 139.36Z" fill="white"/>
<path d="M91.1094 166.4C100.389 166.4 107.589 163.36 112.709 158.08V164H139.909V123.84C139.909 99.36 121.509 81.44 95.9094 81.44C70.9494 81.44 51.9094 100.64 51.9094 123.84C51.9094 147.2 67.7494 166.4 91.1094 166.4ZM95.9094 139.36C86.7894 139.36 80.7094 132.32 80.7094 124C80.7094 115.52 86.7894 108.48 95.9094 108.48C105.029 108.48 111.109 115.52 111.109 124C111.109 132.32 105.029 139.36 95.9094 139.36Z" fill="url(#paint0_linear_178_695)"/>
<path d="M54.5932 259.39C56.8432 259.39 58.8232 258.4 59.3032 257.02L59.6032 259H63.6832V250.24C63.6832 245.95 61.2232 243.52 56.8732 243.52C52.5832 243.52 49.7932 245.74 49.7932 249.13H53.6332C53.6332 247.78 54.6832 247.03 56.6332 247.03C58.2832 247.03 59.1832 247.81 59.1832 249.28V249.52L54.9832 249.85C51.3832 250.12 49.4332 251.83 49.4332 254.59C49.4332 257.53 51.4132 259.39 54.5932 259.39ZM56.2132 255.97C54.8032 255.97 54.1432 255.46 54.1432 254.38C54.1432 253.42 54.8632 252.97 56.8732 252.79L59.2132 252.58V253.39C59.2132 255.1 57.9832 255.97 56.2132 255.97ZM71.6168 259V250.96C71.6168 248.44 72.9668 247.72 74.2868 247.72C75.7568 247.72 76.7168 248.62 76.7168 250.48V259H81.3368V250.96C81.3368 248.41 82.6568 247.69 83.9768 247.69C85.4468 247.69 86.4368 248.59 86.4368 250.48V259H91.0568V249.19C91.0568 245.77 89.1368 243.52 85.2668 243.52C83.1068 243.52 81.3368 244.57 80.5568 246.16C79.6868 244.57 78.2468 243.52 75.9968 243.52C73.8368 243.52 72.3668 244.51 71.6168 245.56L71.3168 244H66.9968V259H71.6168ZM98.8901 259.39C101.14 259.39 103.12 258.4 103.6 257.02L103.9 259H107.98V250.24C107.98 245.95 105.52 243.52 101.17 243.52C96.8801 243.52 94.0901 245.74 94.0901 249.13H97.9301C97.9301 247.78 98.9801 247.03 100.93 247.03C102.58 247.03 103.48 247.81 103.48 249.28V249.52L99.2801 249.85C95.6801 250.12 93.7301 251.83 93.7301 254.59C93.7301 257.53 95.7101 259.39 98.8901 259.39ZM100.51 255.97C99.1001 255.97 98.4401 255.46 98.4401 254.38C98.4401 253.42 99.1601 252.97 101.17 252.79L103.51 252.58V253.39C103.51 255.1 102.28 255.97 100.51 255.97ZM117.594 259.39C119.754 259.39 121.614 258.46 122.424 257.08L122.664 259H127.014V236.38H122.394V245.38C121.524 244.27 119.754 243.52 117.894 243.52C113.334 243.52 110.484 246.82 110.484 251.59C110.484 256.33 113.274 259.39 117.594 259.39ZM118.704 255.16C116.514 255.16 115.134 253.63 115.134 251.41C115.134 249.19 116.514 247.66 118.704 247.66C120.864 247.66 122.364 249.16 122.364 251.41C122.364 253.66 120.864 255.16 118.704 255.16ZM135.013 259.39C137.263 259.39 139.243 258.4 139.723 257.02L140.023 259H144.103V250.24C144.103 245.95 141.643 243.52 137.293 243.52C133.003 243.52 130.213 245.74 130.213 249.13H134.053C134.053 247.78 135.103 247.03 137.053 247.03C138.703 247.03 139.603 247.81 139.603 249.28V249.52L135.403 249.85C131.803 250.12 129.853 251.83 129.853 254.59C129.853 257.53 131.833 259.39 135.013 259.39ZM136.633 255.97C135.223 255.97 134.563 255.46 134.563 254.38C134.563 253.42 135.283 252.97 137.293 252.79L139.633 252.58V253.39C139.633 255.1 138.403 255.97 136.633 255.97Z" fill="white"/>
</g>
<defs>
<filter id="filter0_d_178_695" x="0" y="43" width="194" height="254.39" filterUnits="userSpaceOnUse" color-interpolation-filters="sRGB">
<feFlood flood-opacity="0" result="BackgroundImageFix"/>
<feColorMatrix in="SourceAlpha" type="matrix" values="0 0 0 0 0 0 0 0 0 0 0 0 0 0 0 0 0 0 127 0" result="hardAlpha"/>
<feOffset dy="14"/>
<feGaussianBlur stdDeviation="12"/>
<feComposite in2="hardAlpha" operator="out"/>
<feColorMatrix type="matrix" values="0 0 0 0 0 0 0 0 0 0 0 0 0 0 0 0 0 0 0.25 0"/>
<feBlend mode="normal" in2="BackgroundImageFix" result="effect1_dropShadow_178_695"/>
<feBlend mode="normal" in="SourceGraphic" in2="effect1_dropShadow_178_695" result="shape"/>
</filter>
<linearGradient id="paint0_linear_178_695" x1="53.452" y1="196.844" x2="134.391" y2="197.169" gradientUnits="userSpaceOnUse">
<stop stop-color="#000A6B"/>
<stop offset="1" stop-color="#790D0D"/>
</linearGradient>
</defs>
</svg>
