<svg width="194" height="262" viewBox="0 0 194 262" fill="none" xmlns="http://www.w3.org/2000/svg">
<g filter="url(#filter0_d_178_674)">
<rect x="24" y="10" width="146" height="146" rx="35" fill="white"/>
<path fill-rule="evenodd" clip-rule="evenodd" d="M90.8108 37C71.5853 37 56 52.5853 56 71.8108V129C75.2255 129 90.8108 113.415 90.8108 94.1892V37ZM108.28 37H102.811V95.7572H108.28C124.506 95.7572 137.659 82.604 137.659 66.3786C137.659 50.1532 124.506 37 108.28 37Z" fill="url(#paint0_linear_178_674)"/>
<path d="M58.6098 208.62C63.1398 208.62 66.1698 205.65 66.1698 201.21C66.1698 196.77 63.1398 193.8 58.6098 193.8H49.6098V216H54.4698V208.62H58.6098ZM57.5298 198.12C59.8698 198.12 61.0398 199.14 61.0398 201.21C61.0398 203.28 59.8698 204.3 57.5298 204.3H54.4698V198.12H57.5298ZM73.2887 216V193.38H68.6687V216H73.2887ZM83.7146 216.39C87.8246 216.39 90.7946 214.26 91.3346 210.93H87.1046C86.7746 212.01 85.5446 212.64 83.8046 212.64C81.7646 212.64 80.6546 211.71 80.3846 209.73L91.2747 209.67V208.5C91.2747 203.61 88.3346 200.52 83.6246 200.52C79.0946 200.52 75.9446 203.79 75.9446 208.47C75.9446 213.09 79.1846 216.39 83.7146 216.39ZM83.6546 204.27C85.5146 204.27 86.6846 205.29 86.6846 206.88H80.4446C80.8046 205.08 81.8246 204.27 83.6546 204.27ZM100.311 216.39C102.471 216.39 104.331 215.46 105.141 214.08L105.381 216H109.731V193.38H105.111V202.38C104.241 201.27 102.471 200.52 100.611 200.52C96.0505 200.52 93.2005 203.82 93.2005 208.59C93.2005 213.33 95.9905 216.39 100.311 216.39ZM101.421 212.16C99.2305 212.16 97.8505 210.63 97.8505 208.41C97.8505 206.19 99.2305 204.66 101.421 204.66C103.581 204.66 105.081 206.16 105.081 208.41C105.081 210.66 103.581 212.16 101.421 212.16ZM112.45 208.23C112.45 212.73 115.36 215.82 119.56 215.82C121.51 215.82 123.19 215.13 124.09 214.05V216C124.09 218.13 122.68 219.45 120.46 219.45C118.42 219.45 117.16 218.46 117.07 216.78H112.39C112.81 221.04 115.9 223.65 120.49 223.65C125.62 223.65 128.71 220.41 128.71 215.04V201H124.36L124.12 202.5C123.31 201.27 121.69 200.49 119.65 200.49C115.42 200.49 112.45 203.67 112.45 208.23ZM117.1 208.11C117.1 205.98 118.51 204.51 120.55 204.51C122.68 204.51 124.09 205.92 124.09 208.11C124.09 210.33 122.68 211.8 120.58 211.8C118.54 211.8 117.1 210.27 117.1 208.11ZM139.144 216.39C143.254 216.39 146.224 214.26 146.764 210.93H142.534C142.204 212.01 140.974 212.64 139.234 212.64C137.194 212.64 136.084 211.71 135.814 209.73L146.704 209.67V208.5C146.704 203.61 143.764 200.52 139.054 200.52C134.524 200.52 131.374 203.79 131.374 208.47C131.374 213.09 134.614 216.39 139.144 216.39ZM139.084 204.27C140.944 204.27 142.114 205.29 142.114 206.88H135.874C136.234 205.08 137.254 204.27 139.084 204.27Z" fill="white"/>
</g>
<defs>
<filter id="filter0_d_178_674" x="0" y="0" width="194" height="261.65" filterUnits="userSpaceOnUse" color-interpolation-filters="sRGB">
<feFlood flood-opacity="0" result="BackgroundImageFix"/>
<feColorMatrix in="SourceAlpha" type="matrix" values="0 0 0 0 0 0 0 0 0 0 0 0 0 0 0 0 0 0 127 0" result="hardAlpha"/>
<feOffset dy="14"/>
<feGaussianBlur stdDeviation="12"/>
<feComposite in2="hardAlpha" operator="out"/>
<feColorMatrix type="matrix" values="0 0 0 0 0 0 0 0 0 0 0 0 0 0 0 0 0 0 0.25 0"/>
<feBlend mode="normal" in2="BackgroundImageFix" result="effect1_dropShadow_178_674"/>
<feBlend mode="normal" in="SourceGraphic" in2="effect1_dropShadow_178_674" result="shape"/>
</filter>
<linearGradient id="paint0_linear_178_674" x1="61.2165" y1="117.847" x2="126.653" y2="118.363" gradientUnits="userSpaceOnUse">
<stop stop-color="#000A6B"/>
<stop offset="1" stop-color="#790D0D"/>
</linearGradient>
</defs>
</svg>
