<svg width="34" height="24" viewBox="0 0 34 24" fill="none" xmlns="http://www.w3.org/2000/svg">
<rect x="1.21631" y="0.5" width="31.8513" height="22.6757" rx="3.5" fill="white" stroke="#B2BCCA"/>
<path d="M13.7163 23L32.7163 17.25V20C32.7163 21.6569 31.3732 23 29.7163 23H13.7163Z" fill="#FD6020"/>
<path fill-rule="evenodd" clip-rule="evenodd" d="M29.117 8.98777C30.127 8.98777 30.6824 9.46477 30.6824 10.3658C30.7329 11.0548 30.2784 11.6378 29.6725 11.7438L31.0359 13.7048H29.9755L28.814 11.7968H28.713V13.7048H27.8545V8.98777H29.117ZM28.713 11.1608H28.9655C29.521 11.1608 29.7735 10.8958 29.7735 10.4188C29.7735 9.99476 29.521 9.72975 28.9655 9.72975H28.713V11.1608ZM24.8751 13.7048H27.2991V12.9098H25.7336V11.6378H27.2486V10.8428H25.7336V9.78278H27.2991V8.98777H24.8751V13.7048ZM22.3501 12.1678L21.1886 8.98777H20.2796L22.1481 13.8108H22.6026L24.4711 8.98777H23.5621L22.3501 12.1678ZM12.0988 11.3727C12.0988 12.6977 13.1087 13.8108 14.3712 13.8108C14.7752 13.8108 15.1287 13.7048 15.4822 13.5458V12.4857C15.2297 12.8037 14.8762 13.0157 14.4722 13.0157C13.6642 13.0157 13.0077 12.3797 13.0077 11.5317V11.4257C12.9572 10.5777 13.6137 9.83569 14.4217 9.78269C14.8257 9.78269 15.2297 9.99469 15.4822 10.3127V9.25268C15.1792 9.04068 14.7752 8.98768 14.4217 8.98768C13.1087 8.88167 12.0988 9.99469 12.0988 11.3727ZM10.5333 10.7898C10.0284 10.5778 9.87685 10.4718 9.87685 10.2068C9.92735 9.88875 10.1798 9.62374 10.4828 9.67674C10.7353 9.67674 10.9878 9.83574 11.1898 10.0477L11.6443 9.41174C11.2908 9.09373 10.8363 8.88173 10.3818 8.88173C9.67486 8.82873 9.06887 9.41174 9.01837 10.1537V10.2068C9.01837 10.8428 9.27086 11.2138 10.0788 11.4788C10.2808 11.5318 10.4828 11.6378 10.6848 11.7438C10.8363 11.8498 10.9373 12.0088 10.9373 12.2208C10.9373 12.5918 10.6343 12.9098 10.3313 12.9098H10.2808C9.87685 12.9098 9.52336 12.6448 9.37186 12.2738L8.81637 12.8568C9.11937 13.4398 9.72536 13.7578 10.3313 13.7578C11.1393 13.8108 11.7958 13.1748 11.8463 12.3268V12.1678C11.7958 11.5318 11.5433 11.2138 10.5333 10.7898ZM7.60439 13.7048H8.46287V8.98777H7.60439V13.7048ZM3.61499 8.98703H4.87747H5.12996C6.34194 9.04003 7.30142 10.1001 7.25092 11.3721C7.25092 12.0611 6.94792 12.6971 6.44293 13.1741C5.98844 13.5451 5.43295 13.7571 4.87747 13.7041H3.61499V8.98703ZM4.72599 12.9099C5.12998 12.9629 5.58447 12.8039 5.88747 12.5389C6.19046 12.2209 6.34196 11.7969 6.34196 11.3199C6.34196 10.8959 6.19046 10.4718 5.88747 10.1538C5.58447 9.88884 5.12998 9.72983 4.72599 9.78283H4.47349V12.9099H4.72599Z" fill="black"/>
<path fill-rule="evenodd" clip-rule="evenodd" d="M18.0578 8.87838C16.7953 8.87838 15.7349 9.9384 15.7349 11.3164C15.7349 12.6414 16.7448 13.7545 18.0578 13.8075C19.3708 13.8605 20.3808 12.7474 20.4313 11.3694C20.3808 9.9914 19.3708 8.87838 18.0578 8.87838V8.87838Z" fill="#FD6020"/>
</svg>
