<svg width="34" height="24" viewBox="0 0 34 24" fill="none" xmlns="http://www.w3.org/2000/svg">
<rect x="0.932373" y="0.5" width="31.8513" height="22.6757" rx="3.5" fill="white" stroke="#B2BCCA"/>
<path d="M19.0393 11.5476C19.0393 15.201 16.1718 18.1627 12.6345 18.1627C9.09717 18.1627 6.22961 15.201 6.22961 11.5476C6.22961 7.89417 9.09717 4.93247 12.6345 4.93247C16.1718 4.93247 19.0393 7.89417 19.0393 11.5476Z" fill="#ED0006"/>
<path d="M27.3484 11.5476C27.3484 15.201 24.4809 18.1627 20.9436 18.1627C17.4062 18.1627 14.5387 15.201 14.5387 11.5476C14.5387 7.89417 17.4062 4.93247 20.9436 4.93247C24.4809 4.93247 27.3484 7.89417 27.3484 11.5476Z" fill="#2F80ED"/>
<path fill-rule="evenodd" clip-rule="evenodd" d="M16.789 6.51272C18.1661 7.72606 19.0393 9.53148 19.0393 11.5476C19.0393 13.5636 18.1661 15.369 16.789 16.5824C15.4119 15.369 14.5387 13.5636 14.5387 11.5476C14.5387 9.53148 15.4119 7.72606 16.789 6.51272Z" fill="#6C6BBD"/>
</svg>
