<svg width="33" height="24" viewBox="0 0 33 24" fill="none" xmlns="http://www.w3.org/2000/svg">
<rect x="0.648682" y="0.5" width="31.8513" height="22.6757" rx="3.5" fill="white" stroke="#B2BCCA"/>
<path fill-rule="evenodd" clip-rule="evenodd" d="M16.7472 16.6021C15.6032 17.5866 14.1192 18.181 12.4975 18.181C8.87918 18.181 5.94592 15.2218 5.94592 11.5715C5.94592 7.92122 8.87918 4.96206 12.4975 4.96206C14.1192 4.96206 15.6032 5.55642 16.7472 6.54097C17.8913 5.55642 19.3753 4.96206 20.9969 4.96206C24.6153 4.96206 27.5485 7.92122 27.5485 11.5715C27.5485 15.2218 24.6153 18.181 20.9969 18.181C19.3753 18.181 17.8913 17.5866 16.7472 16.6021Z" fill="#ED0006"/>
<path fill-rule="evenodd" clip-rule="evenodd" d="M16.7472 16.6021C18.1559 15.3898 19.0492 13.5859 19.0492 11.5715C19.0492 9.55714 18.1559 7.75322 16.7472 6.54093C17.8912 5.5564 19.3752 4.96206 20.9968 4.96206C24.6152 4.96206 27.5484 7.92122 27.5484 11.5715C27.5484 15.2218 24.6152 18.181 20.9968 18.181C19.3752 18.181 17.8912 17.5866 16.7472 16.6021Z" fill="#F9A000"/>
<path fill-rule="evenodd" clip-rule="evenodd" d="M16.7472 16.602C18.1559 15.3897 19.0491 13.5859 19.0491 11.5715C19.0491 9.55715 18.1559 7.75327 16.7472 6.54097C15.3385 7.75327 14.4453 9.55715 14.4453 11.5715C14.4453 13.5859 15.3385 15.3897 16.7472 16.602Z" fill="#FD6020"/>
</svg>
