<svg width="34" height="22" viewBox="0 0 34 22" fill="none" xmlns="http://www.w3.org/2000/svg">
<rect x="0.721191" y="0.750061" width="32.0973" height="20.375" rx="3.5" fill="white" stroke="#B2BCCA"/>
<path fill-rule="evenodd" clip-rule="evenodd" d="M14.4474 16.6806L14.6623 15.39L14.1837 15.3795H11.8981L13.4865 5.85547C13.4914 5.82663 13.5074 5.79986 13.5308 5.78081C13.5543 5.76177 13.5842 5.75132 13.6155 5.75132H17.4694C18.7489 5.75132 19.6318 6.00304 20.0927 6.49996C20.3089 6.73307 20.4465 6.97674 20.5132 7.24479C20.583 7.52611 20.5842 7.86218 20.516 8.27214L20.5111 8.30196V8.56467L20.7272 8.68047C20.9092 8.77178 21.0538 8.87625 21.1648 8.99586C21.3496 9.19523 21.4692 9.44859 21.5197 9.74885C21.5719 10.0577 21.5547 10.4253 21.4692 10.8415C21.3705 11.3201 21.2112 11.7371 20.9958 12.0781C20.7979 12.3924 20.5456 12.6532 20.246 12.8552C19.9601 13.0472 19.6203 13.1929 19.2362 13.2861C18.8639 13.3778 18.4394 13.424 17.9739 13.424H17.674C17.4596 13.424 17.2513 13.4971 17.0877 13.628C16.9237 13.7616 16.8153 13.9442 16.7821 14.1439L16.7594 14.2602L16.3797 16.535L16.3626 16.6185C16.358 16.645 16.3502 16.6581 16.3387 16.667C16.3284 16.6752 16.3137 16.6806 16.2993 16.6806H14.4474" fill="#28356A"/>
<path fill-rule="evenodd" clip-rule="evenodd" d="M20.932 8.33224C20.9206 8.40178 20.9074 8.47285 20.8926 8.54587C20.3844 11.0135 18.6456 11.8659 16.4249 11.8659H15.2942C15.0226 11.8659 14.7937 12.0524 14.7514 12.3057L14.0086 16.7617C13.9811 16.9281 14.1166 17.078 14.2941 17.078H16.2996C16.537 17.078 16.7387 16.9149 16.7761 16.6934L16.7958 16.5971L17.1734 14.3311L17.1977 14.2069C17.2346 13.9846 17.4368 13.8214 17.6743 13.8214H17.9742C19.9172 13.8214 21.4383 13.0755 21.8828 10.9167C22.0685 10.015 21.9724 9.26197 21.481 8.73241C21.3323 8.57275 21.1478 8.4402 20.932 8.33224" fill="#2F80ED"/>
<path fill-rule="evenodd" clip-rule="evenodd" d="M20.4001 8.13183C20.3224 8.11039 20.2423 8.09102 20.1601 8.0735C20.0775 8.05641 19.9929 8.04129 19.9058 8.02801C19.6009 7.98143 19.2668 7.95934 18.909 7.95934H15.8884C15.8139 7.95934 15.7433 7.97523 15.6801 8.00396C15.5407 8.0673 15.4372 8.19201 15.4122 8.3447L14.7695 12.1936L14.7511 12.3058C14.7933 12.0524 15.0222 11.866 15.2938 11.866H16.4246C18.6453 11.866 20.3841 11.0131 20.8923 8.54593C20.9075 8.4729 20.9203 8.40184 20.9317 8.3323C20.8031 8.26776 20.6639 8.21258 20.5139 8.16557C20.4768 8.15392 20.4386 8.14271 20.4001 8.13183" fill="#28356A"/>
<path fill-rule="evenodd" clip-rule="evenodd" d="M15.4123 8.34473C15.4374 8.19204 15.5409 8.06733 15.6802 8.00442C15.7439 7.97558 15.8141 7.95969 15.8886 7.95969H18.9092C19.267 7.95969 19.6011 7.98189 19.906 8.02847C19.9931 8.04164 20.0777 8.05688 20.1603 8.07396C20.2425 8.09138 20.3226 8.11086 20.4003 8.13219C20.4388 8.14307 20.477 8.15439 20.5144 8.1656C20.6644 8.21261 20.8037 8.26823 20.9323 8.33233C21.0835 7.42044 20.931 6.79957 20.4097 6.23736C19.8348 5.61833 18.7975 5.35344 17.4699 5.35344H13.616C13.3448 5.35344 13.1135 5.53987 13.0716 5.79366L11.4664 15.4156C11.4347 15.606 11.59 15.7777 11.793 15.7777H14.1723L15.4123 8.34473" fill="#28356A"/>
</svg>
