<svg width="33" height="24" viewBox="0 0 33 24" fill="none" xmlns="http://www.w3.org/2000/svg">
<rect x="0.5" y="0.5" width="31.8513" height="22.6757" rx="3.5" fill="white" stroke="#B2BCCA"/>
<path fill-rule="evenodd" clip-rule="evenodd" d="M10.387 15.6439H8.39689L6.90452 9.65998C6.83368 9.38472 6.68328 9.14138 6.46205 9.02668C5.90993 8.73846 5.30153 8.50908 4.63782 8.39339V8.16301H7.8438C8.28627 8.16301 8.61813 8.50908 8.67344 8.911L9.44776 13.2274L11.4369 8.16301H13.3718L10.387 15.6439ZM14.478 15.6439H12.5985L14.1462 8.16301H16.0257L14.478 15.6439ZM18.4573 10.2355C18.5126 9.83257 18.8445 9.60219 19.2317 9.60219C19.8401 9.54434 20.5028 9.66003 21.0559 9.94726L21.3877 8.33659C20.8347 8.10621 20.2263 7.99052 19.6741 7.99052C17.8499 7.99052 16.5225 9.02674 16.5225 10.4649C16.5225 11.5589 17.4627 12.1334 18.1265 12.4794C18.8445 12.8245 19.121 13.0549 19.0657 13.4C19.0657 13.9176 18.5126 14.148 17.9605 14.148C17.2968 14.148 16.6331 13.9754 16.0257 13.6872L15.6938 15.2989C16.3575 15.5861 17.0756 15.7018 17.7393 15.7018C19.7848 15.7586 21.0559 14.7234 21.0559 13.1696C21.0559 11.2129 18.4573 11.0982 18.4573 10.2355ZM27.6337 15.6439L26.1413 8.16301H24.5383C24.2065 8.16301 23.8746 8.39339 23.764 8.73846L21.0005 15.6439H22.9353L23.3215 14.5508H25.6989L25.9201 15.6439H27.6337ZM24.815 10.1776L25.3671 12.997H23.8194L24.815 10.1776Z" fill="#28356A"/>
</svg>
