<svg width="194" height="255" viewBox="0 0 194 255" fill="none" xmlns="http://www.w3.org/2000/svg">
<g filter="url(#filter0_d_178_681)">
<rect x="24" y="10" width="146" height="146" rx="35" fill="white"/>
<path fill-rule="evenodd" clip-rule="evenodd" d="M134.929 90.0711L142 83L134.929 75.9289L95.331 36.331L81.1888 50.4731L113.716 83L81.1888 115.527L95.331 129.669L134.929 90.0711ZM95.8966 90.6368L102.968 83.5657L95.8966 76.4946L75.532 56.1299L61.3898 70.2721L74.6834 83.5657L61.9555 96.2936L76.0977 110.436L95.8966 90.6368Z" fill="black"/>
<path fill-rule="evenodd" clip-rule="evenodd" d="M134.929 90.0711L142 83L134.929 75.9289L95.331 36.331L81.1888 50.4731L113.716 83L81.1888 115.527L95.331 129.669L134.929 90.0711ZM95.8966 90.6368L102.968 83.5657L95.8966 76.4946L75.532 56.1299L61.3898 70.2721L74.6834 83.5657L61.9555 96.2936L76.0977 110.436L95.8966 90.6368Z" fill="url(#paint0_linear_178_681)"/>
<path d="M52.3089 207.33V202.95H44.5089V198.3H53.7789V193.8H39.6489V216H44.5089V207.33H52.3089ZM54.5872 208.47C54.5872 213.21 58.0672 216.36 62.8672 216.36C67.6372 216.36 71.1172 213.21 71.1172 208.47C71.1172 203.73 67.6372 200.55 62.8672 200.55C58.0672 200.55 54.5872 203.73 54.5872 208.47ZM59.2372 208.44C59.2372 206.19 60.7072 204.69 62.8672 204.69C64.9972 204.69 66.4672 206.19 66.4672 208.44C66.4672 210.72 64.9972 212.22 62.8672 212.22C60.7072 212.22 59.2372 210.72 59.2372 208.44ZM84.1157 201C83.4857 200.85 82.8857 200.79 82.3457 200.79C80.3357 200.79 79.0157 201.78 78.3857 203.25L78.1457 201.03H73.7957V216H78.4157V209.49C78.4157 206.52 80.0057 205.35 82.6457 205.35H84.1157V201ZM90.2814 216H94.7814L96.2214 211.32C97.1814 208.17 97.4514 207 97.5714 206.37C97.6614 207 98.0514 208.77 98.8014 211.23L100.241 216H104.531L109.781 201H104.891L103.451 205.89C103.301 206.43 102.581 209.07 102.401 210.15C102.251 209.19 101.531 206.4 101.381 205.89L99.9714 201H95.2314L93.7014 205.89C93.0414 207.99 92.8914 208.56 92.6214 210.15C92.3814 208.65 92.0514 207.18 91.6914 205.89L90.3114 201H85.4514L90.2814 216ZM115.591 216.39C117.841 216.39 119.821 215.4 120.301 214.02L120.601 216H124.681V207.24C124.681 202.95 122.221 200.52 117.871 200.52C113.581 200.52 110.791 202.74 110.791 206.13H114.631C114.631 204.78 115.681 204.03 117.631 204.03C119.281 204.03 120.181 204.81 120.181 206.28V206.52L115.981 206.85C112.381 207.12 110.431 208.83 110.431 211.59C110.431 214.53 112.411 216.39 115.591 216.39ZM117.211 212.97C115.801 212.97 115.141 212.46 115.141 211.38C115.141 210.42 115.861 209.97 117.871 209.79L120.211 209.58V210.39C120.211 212.1 118.981 212.97 117.211 212.97ZM138.315 201C137.685 200.85 137.085 200.79 136.545 200.79C134.535 200.79 133.215 201.78 132.585 203.25L132.345 201.03H127.995V216H132.615V209.49C132.615 206.52 134.205 205.35 136.845 205.35H138.315V201ZM146.512 216.39C148.672 216.39 150.532 215.46 151.342 214.08L151.582 216H155.932V193.38H151.312V202.38C150.442 201.27 148.672 200.52 146.812 200.52C142.252 200.52 139.402 203.82 139.402 208.59C139.402 213.33 142.192 216.39 146.512 216.39ZM147.622 212.16C145.432 212.16 144.052 210.63 144.052 208.41C144.052 206.19 145.432 204.66 147.622 204.66C149.782 204.66 151.282 206.16 151.282 208.41C151.282 210.66 149.782 212.16 147.622 212.16Z" fill="white"/>
</g>
<defs>
<filter id="filter0_d_178_681" x="0" y="0" width="194" height="254.39" filterUnits="userSpaceOnUse" color-interpolation-filters="sRGB">
<feFlood flood-opacity="0" result="BackgroundImageFix"/>
<feColorMatrix in="SourceAlpha" type="matrix" values="0 0 0 0 0 0 0 0 0 0 0 0 0 0 0 0 0 0 127 0" result="hardAlpha"/>
<feOffset dy="14"/>
<feGaussianBlur stdDeviation="12"/>
<feComposite in2="hardAlpha" operator="out"/>
<feColorMatrix type="matrix" values="0 0 0 0 0 0 0 0 0 0 0 0 0 0 0 0 0 0 0.25 0"/>
<feBlend mode="normal" in2="BackgroundImageFix" result="effect1_dropShadow_178_681"/>
<feBlend mode="normal" in="SourceGraphic" in2="effect1_dropShadow_178_681" result="shape"/>
</filter>
<linearGradient id="paint0_linear_178_681" x1="98.0074" y1="44.97" x2="60.2779" y2="82.0344" gradientUnits="userSpaceOnUse">
<stop stop-color="#000A6B"/>
<stop offset="1" stop-color="#790D0D"/>
</linearGradient>
</defs>
</svg>
