<svg width="194" height="255" viewBox="0 0 194 255" fill="none" xmlns="http://www.w3.org/2000/svg">
<g filter="url(#filter0_d_178_688)">
<rect x="24" y="10" width="146" height="146" rx="35" fill="white"/>
<path fill-rule="evenodd" clip-rule="evenodd" d="M90.8108 71.8108C90.8108 52.5853 75.2255 37 56 37V94.1892C56 113.415 71.5853 129 90.8108 129V71.8108ZM138 37C118.67 37 103 52.67 103 72V129C122.33 129 138 113.33 138 94V37Z" fill="url(#paint0_linear_178_688)"/>
<path d="M56.4159 207.66C56.4159 212.97 59.9859 216.36 65.5359 216.36C71.1159 216.36 74.7159 212.94 74.7159 207.66V193.8H69.8559V207.33C69.8559 210.06 68.2959 211.65 65.5359 211.65C62.8059 211.65 61.2759 210.12 61.2759 207.33V193.8H56.4159V207.66ZM83.233 216V207.78C83.233 205.92 84.403 204.72 86.233 204.72C87.823 204.72 88.873 205.95 88.873 207.84V216H93.493V206.73C93.493 202.8 91.423 200.52 87.853 200.52C85.903 200.52 84.193 201.27 83.263 202.56L82.963 201H78.613V216H83.233ZM99.0864 198.66C100.526 198.66 101.696 197.49 101.696 196.02C101.696 194.55 100.526 193.41 99.0864 193.41C97.6164 193.41 96.4464 194.55 96.4464 196.02C96.4464 197.49 97.6164 198.66 99.0864 198.66ZM96.8064 216H101.426V201H96.8064V216ZM104.082 208.47C104.082 213.21 107.562 216.36 112.362 216.36C117.132 216.36 120.612 213.21 120.612 208.47C120.612 203.73 117.132 200.55 112.362 200.55C107.562 200.55 104.082 203.73 104.082 208.47ZM108.732 208.44C108.732 206.19 110.202 204.69 112.362 204.69C114.492 204.69 115.962 206.19 115.962 208.44C115.962 210.72 114.492 212.22 112.362 212.22C110.202 212.22 108.732 210.72 108.732 208.44ZM127.911 216V207.78C127.911 205.92 129.081 204.72 130.911 204.72C132.501 204.72 133.551 205.95 133.551 207.84V216H138.171V206.73C138.171 202.8 136.101 200.52 132.531 200.52C130.581 200.52 128.871 201.27 127.941 202.56L127.641 201H123.291V216H127.911Z" fill="white"/>
</g>
<defs>
<filter id="filter0_d_178_688" x="0" y="0" width="194" height="254.36" filterUnits="userSpaceOnUse" color-interpolation-filters="sRGB">
<feFlood flood-opacity="0" result="BackgroundImageFix"/>
<feColorMatrix in="SourceAlpha" type="matrix" values="0 0 0 0 0 0 0 0 0 0 0 0 0 0 0 0 0 0 127 0" result="hardAlpha"/>
<feOffset dy="14"/>
<feGaussianBlur stdDeviation="12"/>
<feComposite in2="hardAlpha" operator="out"/>
<feColorMatrix type="matrix" values="0 0 0 0 0 0 0 0 0 0 0 0 0 0 0 0 0 0 0.25 0"/>
<feBlend mode="normal" in2="BackgroundImageFix" result="effect1_dropShadow_178_688"/>
<feBlend mode="normal" in="SourceGraphic" in2="effect1_dropShadow_178_688" result="shape"/>
</filter>
<linearGradient id="paint0_linear_178_688" x1="61.2165" y1="117.847" x2="126.653" y2="118.363" gradientUnits="userSpaceOnUse">
<stop stop-color="#000A6B"/>
<stop offset="1" stop-color="#790D0D"/>
</linearGradient>
</defs>
</svg>
