<svg width="14" height="14" viewBox="0 0 14 14" fill="none" xmlns="http://www.w3.org/2000/svg">
<path d="M1.55556 2.33333C1.55556 1.90378 1.90378 1.55556 2.33333 1.55556H3.88889C4.31844 1.55556 4.66667 1.20733 4.66667 0.777778C4.66667 0.348227 4.31844 0 3.88889 0H2.33333C1.04467 0 0 1.04467 0 2.33333V3.88889C0 4.31844 0.348227 4.66667 0.777778 4.66667C1.20733 4.66667 1.55556 4.31844 1.55556 3.88889V2.33333Z" fill="white"/>
<path d="M1.55556 11.6667C1.55556 12.0963 1.90378 12.4445 2.33333 12.4445H3.88889C4.31844 12.4445 4.66667 12.7927 4.66667 13.2223C4.66667 13.6518 4.31844 14 3.88889 14H2.33333C1.04467 14 0 12.9554 0 11.6667V10.1112C0 9.68159 0.348227 9.33337 0.777778 9.33337C1.20733 9.33337 1.55556 9.68159 1.55556 10.1112V11.6667Z" fill="white"/>
<path d="M11.6667 1.55556C12.0963 1.55556 12.4445 1.90378 12.4445 2.33333V3.88889C12.4445 4.31844 12.7927 4.66667 13.2223 4.66667C13.6518 4.66667 14 4.31844 14 3.88889V2.33333C14 1.04467 12.9554 0 11.6667 0H10.1112C9.68159 0 9.33337 0.348227 9.33337 0.777778C9.33337 1.20733 9.68159 1.55556 10.1112 1.55556H11.6667Z" fill="white"/>
<path d="M12.4445 11.6667C12.4445 12.0963 12.0963 12.4445 11.6667 12.4445H10.1112C9.68159 12.4445 9.33337 12.7927 9.33337 13.2223C9.33337 13.6518 9.68159 14 10.1112 14H11.6667C12.9554 14 14 12.9554 14 11.6667V10.1112C14 9.68159 13.6518 9.33337 13.2223 9.33337C12.7927 9.33337 12.4445 9.68159 12.4445 10.1112V11.6667Z" fill="white"/>
</svg>
