<svg width="15" height="18" viewBox="0 0 15 18" fill="none" xmlns="http://www.w3.org/2000/svg">
<path fill-rule="evenodd" clip-rule="evenodd" d="M12.1022 5.16334V6.44112C13.5375 6.88913 14.5833 8.18844 14.5833 9.74033V13.8544C14.5833 15.7756 12.9905 17.3333 11.0268 17.3333H3.97396C2.00942 17.3333 0.416626 15.7756 0.416626 13.8544V9.74033C0.416626 8.18844 1.46325 6.88913 2.8977 6.44112V5.16334C2.90617 2.67899 4.96385 0.666664 7.48726 0.666664C10.0445 0.666664 12.1022 2.67899 12.1022 5.16334ZM7.50419 2.11587C9.22316 2.11587 10.6204 3.48226 10.6204 5.16334V6.26142H4.37957V5.14677C4.38803 3.47398 5.78522 2.11587 7.50419 2.11587ZM8.24089 12.7124C8.24089 13.1182 7.91065 13.4412 7.49573 13.4412C7.08927 13.4412 6.75902 13.1182 6.75902 12.7124V10.874C6.75902 10.4765 7.08927 10.1536 7.49573 10.1536C7.91065 10.1536 8.24089 10.4765 8.24089 10.874V12.7124Z" fill="white"/>
</svg>
